<?xml version="1.0" encoding="iso-8859-1"?>
<!-- Generator: Adobe Illustrator 19.0.0, SVG Export Plug-In . SVG Version: 6.00 Build 0)  -->
<svg version="1.1" id="Layer_1" xmlns="http://www.w3.org/2000/svg" xmlns:xlink="http://www.w3.org/1999/xlink" x="0px" y="0px"
	 viewBox="0 0 512 512" style="enable-background:new 0 0 512 512;" xml:space="preserve">
<g>
	<g>
		<path d="M329.384,204.228l-73.381-73.38l-73.339,73.337c-18.805,18.785-30.441,44.746-30.442,73.424
			c0.001,57.315,46.464,103.777,103.777,103.777c57.315,0,103.779-46.462,103.779-103.777
			C359.779,248.954,348.162,223.01,329.384,204.228z"/>
	</g>
</g>
<g>
	<g>
		<path d="M511.999,255.908V0H0.001v255.908c0,0.03-0.001,0.06-0.001,0.091s0.001,0.061,0.001,0.091v255.908h255.817
			c0.06,0,0.121,0.002,0.182,0.002s0.122-0.002,0.182-0.002h255.817V256.09c0-0.03,0.001-0.06,0.001-0.091
			C512,255.968,511.999,255.937,511.999,255.908z M453.73,34.133l-29.184,29.184c-12.684-11.126-26.292-20.878-40.646-29.184H453.73
			z M477.866,58.269v69.829c-8.307-14.353-18.058-27.962-29.184-40.645L477.866,58.269z M128.1,34.133
			c-14.354,8.306-27.962,18.058-40.646,29.184L58.27,34.133H128.1z M34.134,58.269l29.184,29.184
			c-11.126,12.683-20.879,26.291-29.184,40.645V58.269z M34.134,383.9c8.306,14.353,18.058,27.962,29.184,40.645l-29.184,29.184
			V383.9z M58.27,477.865l29.183-29.183c12.684,11.125,26.291,20.877,40.643,29.183H58.27z M383.904,477.865
			c14.353-8.306,27.96-18.058,40.644-29.183l29.183,29.183H383.904z M477.866,453.729l-29.184-29.184
			c11.126-12.682,20.878-26.291,29.184-40.645V453.729z M477.867,256.085h-0.001c-0.023,55.007-20.169,105.388-53.455,144.188
			l-50.767-50.767c-6.022,9.819-13.241,18.824-21.448,26.823l48.08,48.08c-38.779,33.268-89.129,53.413-144.099,53.455h-0.352
			c-54.97-0.042-105.32-20.186-144.099-53.455l48.081-48.081c-8.207-7.999-15.426-17.005-21.448-26.823L87.59,400.273
			c-33.287-38.8-53.433-89.182-53.455-144.188v-0.173c0.023-55.006,20.17-105.388,53.455-144.188l69.649,69.648
			c0.434-0.447,0.864-0.895,1.304-1.337l22.816-22.815l-69.632-69.632C150.546,54.287,200.961,34.133,256,34.133
			s105.454,20.153,144.274,53.456l-69.628,69.628l22.875,22.875c0.421,0.421,0.831,0.851,1.246,1.277l69.644-69.644
			c33.287,38.799,53.434,89.182,53.456,144.188V256.085z"/>
	</g>
</g>
<g>
</g>
<g>
</g>
<g>
</g>
<g>
</g>
<g>
</g>
<g>
</g>
<g>
</g>
<g>
</g>
<g>
</g>
<g>
</g>
<g>
</g>
<g>
</g>
<g>
</g>
<g>
</g>
<g>
</g>
</svg>
