<?xml version="1.0" encoding="iso-8859-1"?>
<!-- Generator: Adobe Illustrator 17.1.0, SVG Export Plug-In . SVG Version: 6.00 Build 0)  -->
<!DOCTYPE svg PUBLIC "-//W3C//DTD SVG 1.1//EN" "http://www.w3.org/Graphics/SVG/1.1/DTD/svg11.dtd">
<svg version="1.1" id="Capa_1" xmlns="http://www.w3.org/2000/svg" xmlns:xlink="http://www.w3.org/1999/xlink" x="0px" y="0px"
	 viewBox="0 0 214.614 214.614" style="enable-background:new 0 0 214.614 214.614;" xml:space="preserve">
<path style="fill:#000001;" d="M64.071,145.308l-9.488,9.488c-3.521,3.521-8.203,5.461-13.184,5.461
	c-1.628,0-3.251-0.214-4.824-0.635l-4.517-1.21c-2.588-0.694-4.609-2.715-5.303-5.304c-0.693-2.588,0.046-5.35,1.94-7.244
	l11.138-11.138c0.806-0.805,0.806-2.166,0-2.971l-5.009-5.009c-0.524-0.525-1.156-0.604-1.485-0.604s-0.96,0.079-1.484,0.604
	l-11.138,11.138c-1.896,1.896-4.658,2.635-7.245,1.941c-2.588-0.694-4.609-2.715-5.303-5.304l-1.21-4.515
	c-1.719-6.414,0.131-13.314,4.825-18.009l9.486-9.487c3.522-3.521,8.205-5.461,13.185-5.461c1.628,0,3.251,0.214,4.824,0.635
	l3.998,1.071l61.802-61.801l-1.071-3.998c-1.719-6.415,0.131-13.315,4.825-18.01l9.486-9.486C121.843,1.939,126.526,0,131.506,0
	c1.627,0,3.25,0.214,4.823,0.635l4.517,1.21c2.588,0.694,4.609,2.715,5.303,5.304c0.693,2.588-0.046,5.35-1.94,7.244L133.07,25.531
	c-0.806,0.805-0.806,2.166,0,2.971l5.009,5.008c0.525,0.525,1.156,0.604,1.485,0.604s0.961-0.079,1.486-0.604l11.137-11.137
	c1.896-1.895,4.659-2.633,7.245-1.941c2.588,0.694,4.609,2.715,5.303,5.304l1.21,4.515c1.719,6.414-0.131,13.314-4.825,18.009
	l-9.486,9.487c-3.522,3.521-8.205,5.461-13.186,5.461c-1.627,0-3.25-0.214-4.824-0.635l-3.998-1.071l-61.801,61.801l1.07,3.999
	C70.614,133.713,68.766,140.613,64.071,145.308z M206.857,70.688c-1.631-2.497-4.378-3.987-7.348-3.987
	c-1.218,0-2.406,0.25-3.529,0.742l-7.554,3.31c-1.074,0.356-2.084,0.961-2.939,1.816l-50.15,50.15
	c-2.891-1.786-6.729-1.432-9.237,1.075l-3.871,3.871l-3.28-3.28c-2.929-2.929-7.677-2.929-10.607,0
	c-2.484,2.484-2.853,6.275-1.123,9.157l-42.685,42.686c-5.54,5.542-5.54,14.558,0.001,20.1l14.126,14.126
	c2.685,2.685,6.253,4.164,10.05,4.164c3.796,0,7.365-1.479,10.051-4.163l42.684-42.685c1.183,0.711,2.517,1.074,3.854,1.074
	c1.919,0,3.839-0.732,5.304-2.197c2.929-2.929,2.929-7.678,0-10.606l-3.281-3.281l3.871-3.871c2.507-2.508,2.861-6.346,1.075-9.237
	l50.151-50.151c0.803-0.803,1.401-1.774,1.767-2.829l3.356-7.661C208.736,76.284,208.481,73.173,206.857,70.688z"/>
<g>
</g>
<g>
</g>
<g>
</g>
<g>
</g>
<g>
</g>
<g>
</g>
<g>
</g>
<g>
</g>
<g>
</g>
<g>
</g>
<g>
</g>
<g>
</g>
<g>
</g>
<g>
</g>
<g>
</g>
</svg>
